<svg xmlns="http://www.w3.org/2000/svg" viewBox="0 0 108 108" role="img" aria-label="Front Desk">
  <defs>
    <linearGradient id="bg" x1="18" y1="12" x2="92" y2="98" gradientUnits="userSpaceOnUse">
      <stop offset="0" stop-color="#2563EB"/>
      <stop offset="1" stop-color="#4338CA"/>
    </linearGradient>
  </defs>
  <rect width="108" height="108" rx="24" fill="url(#bg)"/>
  <g fill="none" stroke="#fff" stroke-linecap="round">
    <path d="M72 40c6.6 0 12 5.4 12 12" stroke-width="3.2"/>
    <path d="M72 48c2.2 0 4 1.8 4 4" stroke-width="3.2"/>
    <path d="M34 56c0-14 9-24 20-24s20 10 20 24" stroke-width="5"/>
    <path d="M78 66 70 76" stroke-width="4"/>
  </g>
  <rect x="30" y="54" width="18" height="24" rx="4" fill="#fff"/>
  <rect x="64" y="54" width="18" height="24" rx="4" fill="#fff"/>
  <circle cx="66" cy="74" r="4" fill="#fff"/>
  <rect x="42" y="76" width="24" height="16" rx="6" fill="#fff"/>
  <rect x="48" y="80" width="12" height="4" rx="2" fill="#4338CA"/>
</svg>
